<svg width="950" height="347" viewBox="0 0 950 347" fill="none" xmlns="http://www.w3.org/2000/svg">
<path d="M19.4667 1.81401C13.2 4.08067 5.46667 10.8807 2.53333 16.8807C0.133333 21.814 0 27.6807 0 183.547C0 272.347 0.4 345.547 1.06667 346.081C1.6 346.614 4 345.281 6.4 343.014C13.6 336.214 30.8 325.681 42 321.281C67.2 311.681 82.9333 309.681 143.2 308.614C191.867 307.814 203.067 306.881 220.267 302.481C232.267 299.414 251.867 290.347 263.467 282.481C274.267 275.147 292.267 257.814 300.8 246.614C310.8 233.681 322.533 208.614 326.933 191.281C330.267 177.947 330.667 174.481 330.533 153.281C330.533 127.681 328.533 116.614 320.667 96.214C301.067 45.5473 252.533 7.81401 198.667 1.41401C181.067 -0.719328 25.4667 -0.319328 19.4667 1.81401ZM244.4 138.214C245.733 139.547 249.867 144.347 253.2 149.014C256.667 153.547 264.933 163.814 271.6 171.681C285.733 188.347 287.733 192.214 285.867 199.014C284.133 205.547 276.533 211.947 270.533 211.947C265.467 211.947 259.467 209.414 256.8 206.081C253.867 202.614 250.933 203.547 244.667 210.081C231.067 223.947 214.8 233.814 197.733 238.614C164.133 247.947 129.867 242.347 101.067 222.881C85.3333 212.214 65.6 187.814 63.7333 176.881L63.0667 172.214L74.5333 171.281C94.9333 169.547 96.1333 169.947 108.933 183.014C121.467 195.947 130.667 201.147 147.067 204.614C174.533 210.347 200.4 203.281 218.4 185.147C226.8 176.481 229.067 171.947 225.867 169.947C225.067 169.414 222.667 166.614 220.533 163.681C214.8 155.681 215.067 148.347 221.467 141.281C226 136.214 226.667 135.947 234 135.947C239.467 135.947 242.533 136.614 244.4 138.214Z" fill="black"/>
<path d="M596.267 117.281C582.133 120.881 569.467 131.281 563.6 143.947C560.667 150.081 560.133 153.281 560.133 163.281C560 173.547 560.533 176.347 563.6 182.881C568.133 192.614 577.333 201.814 587.067 206.347C593.867 209.547 596.267 209.947 609.333 209.947C622.667 209.947 624.8 209.547 632.133 206.214C642.4 201.414 651.467 192.347 656.133 181.947C661.333 170.881 661.333 155.814 656.267 144.881C651.6 134.481 643.2 126.081 633.067 121.147C626.133 117.814 622.533 117.014 612.933 116.614C606.533 116.214 599.067 116.614 596.267 117.281ZM622.667 136.881C637.2 144.214 642.933 162.347 635.333 177.814C628 193.147 605.733 197.814 591.467 187.014C585.6 182.481 580.667 171.814 580.667 163.281C580.8 141.681 603.6 127.281 622.667 136.881Z" fill="black"/>
<path d="M468.667 163.147V209.281H479.333H490V196.614V183.947H502.4C524.4 183.947 537.333 178.747 544.267 167.014C547.467 161.547 548 159.281 547.867 150.614C547.867 135.947 542.533 127.947 528.8 121.414C521.733 118.081 520.133 117.947 495.067 117.547L468.667 117.014V163.147ZM515.2 135.947C525.2 138.747 529.733 148.614 525.333 157.814C522.133 164.481 516.667 166.614 502.133 166.614H490V150.614V134.614H500.4C506 134.614 512.667 135.147 515.2 135.947Z" fill="black"/>
<path d="M666.4 118.881C666.667 119.814 673.467 140.614 681.467 164.881L696 209.281H707.467H719.067L729.333 178.614C735.067 161.681 740 148.081 740.267 148.481C740.667 148.881 745.467 162.614 750.933 179.281L760.933 209.414L772.4 209.014L783.867 208.614L798.133 165.281C806 141.414 812.8 120.881 813.333 119.547C814.267 117.414 813.467 117.147 804 117.547L793.6 117.947L782.667 150.481L771.867 183.014L764.4 159.814C760.267 147.014 755.467 132.214 753.867 126.881L750.8 117.147L740.8 117.547L730.8 117.947L720.133 149.547C714.267 167.014 708.933 180.747 708.533 180.214C708 179.681 703.2 165.281 697.867 148.214L688.133 117.281H676.933C668.533 117.281 665.867 117.681 666.4 118.881Z" fill="black"/>
<path d="M826 163.281V209.281H836.667H847.333V163.281V117.281H836.667H826V163.281Z" fill="black"/>
<path d="M870 163.147V209.281H880.667H891.333V196.614V183.947H903.733C925.467 183.947 938.667 178.614 945.333 167.414C952.8 154.747 950.8 138.614 940.533 128.214C931.867 119.547 926.667 118.214 896.4 117.547L870 117.014V163.147ZM918.4 136.481C925.333 139.414 928 143.281 928 150.747C928 156.347 927.333 157.814 923.6 161.547C919.333 165.814 919.067 165.947 905.333 166.347L891.333 166.881V150.747V134.614H902.667C909.333 134.614 915.867 135.414 918.4 136.481Z" fill="black"/>
</svg>
