<?xml version="1.0" standalone="no"?>
<!DOCTYPE svg PUBLIC "-//W3C//DTD SVG 20010904//EN"
 "http://www.w3.org/TR/2001/REC-SVG-20010904/DTD/svg10.dtd">
<svg version="1.0" xmlns="http://www.w3.org/2000/svg"
 width="1310.000000pt" height="729.000000pt" viewBox="0 0 1310.000000 729.000000"
 preserveAspectRatio="xMidYMid meet">

<g transform="translate(0.000000,729.000000) scale(0.100000,-0.100000)"
fill="#000000" stroke="none">
<path d="M3001 4886 c-47 -17 -105 -68 -127 -113 -18 -37 -19 -81 -19 -1250 0
-666 3 -1215 8 -1219 4 -4 22 6 40 23 54 51 183 130 267 163 189 72 307 87
759 95 365 6 449 13 578 46 90 23 237 91 324 150 81 55 216 185 280 269 75 97
163 285 196 415 25 100 28 126 27 285 0 192 -15 275 -74 428 -147 380 -511
663 -915 711 -132 16 -1299 13 -1344 -3z m1687 -1023 c10 -10 41 -46 66 -81
26 -34 88 -111 138 -170 106 -125 121 -154 107 -205 -13 -49 -70 -97 -115 -97
-38 0 -83 19 -103 44 -22 26 -44 19 -91 -30 -102 -104 -224 -178 -352 -214
-252 -70 -509 -28 -725 118 -118 80 -266 263 -280 345 l-5 35 86 7 c153 13
162 10 258 -88 94 -97 163 -136 286 -162 206 -43 400 10 535 146 63 65 80 99
56 114 -6 4 -24 25 -40 47 -43 60 -41 115 7 168 34 38 39 40 94 40 41 0 64 -5
78 -17z"/>
<path d="M7327 4020 c-106 -27 -201 -105 -245 -200 -22 -46 -26 -70 -26 -145
-1 -77 3 -98 26 -147 34 -73 103 -142 176 -176 51 -24 69 -27 167 -27 100 0
116 3 171 28 77 36 145 104 180 182 39 83 39 196 1 278 -35 78 -98 141 -174
178 -52 25 -79 31 -151 34 -48 3 -104 0 -125 -5z m198 -147 c109 -55 152 -191
95 -307 -55 -115 -222 -150 -329 -69 -44 34 -81 114 -81 178 1 162 172 270
315 198z"/>
<path d="M6370 3676 l0 -346 80 0 80 0 0 95 0 95 93 0 c165 0 262 39 314 127
24 41 28 58 27 123 0 110 -40 170 -143 219 -53 25 -65 26 -253 29 l-198 4 0
-346z m349 204 c75 -21 109 -95 76 -164 -24 -50 -65 -66 -174 -66 l-91 0 0
120 0 120 78 0 c42 0 92 -4 111 -10z"/>
<path d="M7853 4008 c2 -7 53 -163 113 -345 l109 -333 86 0 87 0 77 230 c43
127 80 229 82 226 3 -3 39 -106 80 -231 l75 -226 86 3 86 3 107 325 c59 179
110 333 114 343 7 16 1 18 -70 15 l-78 -3 -82 -244 -81 -244 -56 174 c-31 96
-67 207 -79 247 l-23 73 -75 -3 -75 -3 -80 -237 c-44 -131 -84 -234 -87 -230
-4 4 -40 112 -80 240 l-73 232 -84 0 c-63 0 -83 -3 -79 -12z"/>
<path d="M9050 3675 l0 -345 80 0 80 0 0 345 0 345 -80 0 -80 0 0 -345z"/>
<path d="M9380 3676 l0 -346 80 0 80 0 0 95 0 95 93 0 c163 0 262 40 312 124
56 95 41 216 -36 294 -65 65 -104 75 -331 80 l-198 4 0 -346z m363 200 c52
-22 72 -51 72 -107 0 -42 -5 -53 -33 -81 -32 -32 -34 -33 -137 -36 l-105 -4 0
121 0 121 85 0 c50 0 99 -6 118 -14z"/>
</g>
</svg>
