<svg width="331" height="347" viewBox="0 0 331 347" fill="none" xmlns="http://www.w3.org/2000/svg">
<path d="M19.4667 1.81399C13.2 4.08065 5.46667 10.8807 2.53333 16.8807C0.133333 21.814 0 27.6807 0 183.547C0 272.347 0.4 345.547 1.06667 346.081C1.6 346.614 4 345.281 6.4 343.014C13.6 336.214 30.8 325.681 42 321.281C67.2 311.681 82.9333 309.681 143.2 308.614C191.867 307.814 203.067 306.881 220.267 302.481C232.267 299.414 251.867 290.347 263.467 282.481C274.267 275.147 292.267 257.814 300.8 246.614C310.8 233.681 322.533 208.614 326.933 191.281C330.267 177.947 330.667 174.481 330.533 153.281C330.533 127.681 328.533 116.614 320.667 96.214C301.067 45.5473 252.533 7.81399 198.667 1.41399C181.067 -0.719342 25.4667 -0.319348 19.4667 1.81399ZM244.4 138.214C245.733 139.547 249.867 144.347 253.2 149.014C256.667 153.547 264.933 163.814 271.6 171.681C285.733 188.347 287.733 192.214 285.867 199.014C284.133 205.547 276.533 211.947 270.533 211.947C265.467 211.947 259.467 209.414 256.8 206.081C253.867 202.614 250.933 203.547 244.667 210.081C231.067 223.947 214.8 233.814 197.733 238.614C164.133 247.947 129.867 242.347 101.067 222.881C85.3333 212.214 65.6 187.814 63.7333 176.881L63.0667 172.214L74.5333 171.281C94.9333 169.547 96.1333 169.947 108.933 183.014C121.467 195.947 130.667 201.147 147.067 204.614C174.533 210.347 200.4 203.281 218.4 185.147C226.8 176.481 229.067 171.947 225.867 169.947C225.067 169.414 222.667 166.614 220.533 163.681C214.8 155.681 215.067 148.347 221.467 141.281C226 136.214 226.667 135.947 234 135.947C239.467 135.947 242.533 136.614 244.4 138.214Z" fill="black"/>
</svg>
